<?xml version="1.0" encoding="UTF-8" standalone="no"?>
<!-- Created with Inkscape (http://www.inkscape.org/) -->

<svg
   width="1024"
   height="1024"
   viewBox="0 0 270.93333 270.93332"
   version="1.1"
   id="svg1"
   xmlns="http://www.w3.org/2000/svg"
   xmlns:svg="http://www.w3.org/2000/svg">
  <defs
     id="defs1">
    <view
       viewBox="0 0 270.93333 270.93332"
       id="view2" />
  </defs>
  <g
     id="layer1">
    <path
       d="m 131.61189,64.549611 c -25.94964,-2.1e-5 -47.28216,19.768235 -49.759726,45.066929 -0.265858,2.7147 -0.255326,7.14794 -0.07617,9.87034 0.392803,5.96873 1.496098,12.16143 3.367292,18.09528 3.071531,9.74031 12.573025,23.73188 19.761839,31.02739 5.30695,5.38572 11.36169,9.89963 18.20078,12.02851 4.53857,1.41277 12.47338,1.41278 17.012,1.3e-4 6.83861,-2.12851 12.89287,-6.6415 18.19943,-12.02628 7.18917,-7.29515 16.69102,-21.28652 19.7628,-31.02675 1.87158,-5.93454 2.97501,-12.12815 3.36772,-18.09831 0.17908,-2.7224 0.18964,-7.15571 -0.0778,-9.87024 C 178.88172,84.365477 157.5007,64.549575 131.61184,64.549551 Z"
       style="opacity:1;fill:#f7f2f3;stroke-width:1.99489"
       id="path2"
       transform="matrix(1.7078283,0.98601515,-0.98601515,1.7078283,12.317336,-177.31909)" />
    <g
       id="g10"
       transform="matrix(1.7078283,0.98601515,-0.98601515,1.7078283,9.8350787,-180.77383)"
       style="opacity:1;fill:#f7f2f3;fill-opacity:1">
      <path
         d="m 143.44887,42.738993 a 17.582016,17.582016 0 0 0 -13.7573,6.634221 17.582016,17.582016 0 0 0 -1.50379,2.217435 17.582016,17.582016 0 0 0 -2.32078,8.730734 v 2.463932 h 6.05131 2.67063 13.78883 a 17.582016,17.582016 0 0 0 17.58187,-17.581873 v -2.464449 z"
         style="opacity:1;fill:#f7f2f3;fill-opacity:1;stroke-width:2.02744"
         id="path10" />
      <path
         d="m 123.20566,62.785315 c -0.0205,-1.941325 -0.008,-3.882925 0.32504,-5.80068 0.3801,-2.53756 1.29837,-4.959323 2.6293,-7.132898 a 13.472722,13.472722 0 0 0 -7.71426,-2.427242 h -17.24959 v 1.888257 a 13.472722,13.472722 0 0 0 13.47256,13.472563 z"
         style="opacity:1;fill:#f7f2f3;fill-opacity:1;stroke-width:2.02744"
         id="path9" />
    </g>
  </g>
</svg>
