<?xml version="1.0" encoding="UTF-8" standalone="no"?>
<!-- Created with Inkscape (http://www.inkscape.org/) -->

<svg
   width="1023.9999"
   height="1024"
   viewBox="0 0 270.93333 270.93334"
   version="1.1"
   id="svg1"
   xmlns:xlink="http://www.w3.org/1999/xlink"
   xmlns="http://www.w3.org/2000/svg"
   xmlns:svg="http://www.w3.org/2000/svg">
  <g
     id="layer2"
     style="display:inline">
    <path
       id="rect1-9"
       style="fill:#f7f2f3;fill-opacity:1;stroke-width:11.6197"
       transform="matrix(0.44152416,1.6477905,-1.6477905,0.44152416,51.840339,-102.00376)"
       d="m 150.30584,-56.746876 h 3.45789 a 57.270468,57.270468 37.580394 0 1 55.36041,42.60308 l 2.38856,9.0153735 a 206.50284,206.50284 77.840667 0 1 4.06736,18.8771275 l 1.47252,8.818839 A 34.665591,34.665591 135 0 1 177.15114,62.46898 L 168.3323,60.996464 A 206.50277,206.50277 12.159332 0 1 149.45518,56.929107 L 140.4398,54.54054 A 57.270467,57.270467 52.419605 0 1 97.836716,-0.819863 v -3.457885 a 52.469128,52.469128 135 0 1 52.469124,-52.469128 z" />
    <path
       d="m 153.72666,47.356947 c 5.71052,-4.964542 12.20307,-9.058235 19.18024,-11.998734 0.52786,-0.224574 1.05837,-0.441851 1.59172,-0.651899 a 48.956325,48.956325 0 0 0 -0.0113,-0.03942 A 48.956325,48.956325 0 0 0 149.77442,4.4330922 48.956325,48.956325 0 0 0 137.18538,2.2325602e-6 48.956325,48.956325 0 0 0 151.84987,45.702681 a 48.956325,48.956325 0 0 0 1.87689,1.654259 z"
       style="fill:#f7f2f3;stroke-width:10.5877"
       id="path20-3" />
    <path
       d="m 233.75209,44.776665 a 63.790998,63.790998 0 0 0 -50.21768,-8.189801 63.790998,63.790998 0 0 0 -0.16166,0.04128 63.790998,63.790998 0 0 0 -3.29205,0.939674 63.790998,63.790998 0 0 0 -0.20964,0.06638 63.790998,63.790998 0 0 0 -4.3361,1.555474 63.790998,63.790998 0 0 0 -18.06578,11.005571 63.790998,63.790998 0 0 0 -0.56419,0.494165 63.790998,63.790998 0 0 0 0.45553,0.508391 63.790998,63.790998 0 0 0 10.36297,9.195676 63.790998,63.790998 0 0 0 2.51106,1.692572 63.790998,63.790998 0 0 0 15.59542,7.236695 63.790998,63.790998 0 0 0 61.12723,-13.228373 63.790998,63.790998 0 0 0 -13.20511,-11.3177 z"
       style="fill:#f7f2f3;stroke-width:10.5877"
       id="path19-6" />
  </g>
</svg>
